<?xml version="1.0" encoding="utf-8"?>
<!-- Generator: Adobe Illustrator 19.2.1, SVG Export Plug-In . SVG Version: 6.00 Build 0)  -->
<svg version="1.1" id="Layer_1" xmlns="http://www.w3.org/2000/svg" xmlns:xlink="http://www.w3.org/1999/xlink" x="0px" y="0px"
	 viewBox="0 0 40 40" style="enable-background:new 0 0 40 40;" xml:space="preserve">
<style type="text/css">
	.st0{clip-path:url(#SVGID_2_);}
	.st1{clip-path:url(#SVGID_4_);fill:#FFFFFF;}
	.st2{clip-path:url(#SVGID_6_);}
	.st3{clip-path:url(#SVGID_8_);fill:#FFFFFF;}
</style>
<g>
	<defs>
		<path id="SVGID_1_" d="M38.6,32.4c-1.4-1.4-15.9-15.4-15.9-15.4C22,16.2,21,15.8,20,15.8s-1.9,0.4-2.7,1.1
			c0,0-14.7,13.8-16.1,15.2c-1.4,1.4-1.5,4,0,5.5s3.5,1.7,5.4,0L20,25l13.2,12.8c1.8,1.7,3.9,1.5,5.4,0C40.1,36.4,40,33.8,38.6,32.4
			z"/>
	</defs>
	<use xlink:href="#SVGID_1_"  style="overflow:visible;fill-rule:evenodd;clip-rule:evenodd;fill:#FFFFFF;"/>
	<clipPath id="SVGID_2_">
		<use xlink:href="#SVGID_1_"  style="overflow:visible;"/>
	</clipPath>
	<g class="st0">
		<defs>
			
				<rect id="SVGID_3_" x="-2714.7" y="-2140.1" transform="matrix(5.878259e-03 -1 1 5.878259e-03 -208.3175 -967.3147)" width="4248.1" height="3522.3"/>
		</defs>
		<use xlink:href="#SVGID_3_"  style="overflow:visible;fill:#FFFFFF;"/>
		<clipPath id="SVGID_4_">
			<use xlink:href="#SVGID_3_"  style="overflow:visible;"/>
		</clipPath>
		
			<rect x="-8.8" y="-9.6" transform="matrix(5.878259e-03 -1 1 5.878259e-03 -7.522 47.1581)" class="st1" width="57.6" height="73.9"/>
	</g>
</g>
<g>
	<defs>
		<path id="SVGID_5_" d="M38.7,7.9c-1.4,1.4-16.1,15.2-16.1,15.2c-0.7,0.8-1.7,1.1-2.7,1.1c-1,0-1.9-0.4-2.7-1.2
			c0,0-14.5-14-15.9-15.4c-1.4-1.4-1.5-4,0-5.5s3.6-1.6,5.4,0L20,15L33.4,2.3c1.8-1.6,3.9-1.5,5.4,0C40.3,3.9,40.1,6.4,38.7,7.9z"/>
	</defs>
	<use xlink:href="#SVGID_5_"  style="overflow:visible;fill-rule:evenodd;clip-rule:evenodd;fill:#FFFFFF;"/>
	<clipPath id="SVGID_6_">
		<use xlink:href="#SVGID_5_"  style="overflow:visible;"/>
	</clipPath>
	<g class="st2">
		<defs>
			
				<rect id="SVGID_7_" x="-2578.4" y="-2154" transform="matrix(5.878259e-03 -1 1 5.878259e-03 -58.8852 -844.8409)" width="4248.1" height="3522.3"/>
		</defs>
		<use xlink:href="#SVGID_7_"  style="overflow:visible;fill:#FFFFFF;"/>
		<clipPath id="SVGID_8_">
			<use xlink:href="#SVGID_7_"  style="overflow:visible;"/>
		</clipPath>
		
			<rect x="-8.7" y="-24.3" transform="matrix(5.878259e-03 -1 1 5.878259e-03 7.2887 32.6063)" class="st3" width="57.6" height="73.9"/>
	</g>
</g>
</svg>
