<?xml version="1.0" encoding="utf-8"?>
<!-- Generator: Adobe Illustrator 19.0.0, SVG Export Plug-In . SVG Version: 6.00 Build 0)  -->
<svg version="1.1" id="Layer_1" xmlns="http://www.w3.org/2000/svg" xmlns:xlink="http://www.w3.org/1999/xlink" x="0px" y="0px"
	 viewBox="0 0 80 20" style="enable-background:new 0 0 80 20;" xml:space="preserve" height="20px" width="80px">
<style type="text/css">
	.st0{fill:#FFFFFF;}
	.st1{clip-path:url(#XMLID_6_);}
	.st2{clip-path:url(#XMLID_7_);fill:#3C3C57;}
	.st3{enable-background:new    ;}
	.st4{clip-path:url(#XMLID_8_);}
	.st5{clip-path:url(#XMLID_9_);}
	.st6{clip-path:url(#XMLID_10_);fill:#FFFFFF;}
	.st7{clip-path:url(#XMLID_11_);}
	.st8{clip-path:url(#XMLID_12_);fill:#3C3C57;}
	.st9{clip-path:url(#XMLID_14_);}
	.st10{clip-path:url(#XMLID_16_);fill:#3C3C57;}
	.st11{clip-path:url(#XMLID_17_);}
	.st12{clip-path:url(#XMLID_18_);fill:#3C3C57;}
</style>
<circle id="XMLID_3_" class="st0" cx="10" cy="10" r="10"/>
<circle id="XMLID_15_" class="st0" cx="50" cy="10" r="10"/>
<circle id="XMLID_4_" class="st0" cx="30" cy="10" r="10"/>
<g id="XMLID_42_">
	<defs>
		<path id="XMLID_43_" d="M47.5,11.2c-0.7,0-1.3,0.6-1.3,1.3c0,0.7,0.6,1.3,1.3,1.3c0.7,0,1.3-0.6,1.3-1.3
			C48.8,11.8,48.2,11.2,47.5,11.2z M46.2,7.7v1.4c2.6,0,4.7,2.1,4.7,4.7h1.4C52.3,10.5,49.5,7.7,46.2,7.7z M46.2,5v1.4
			c4.1,0,7.5,3.3,7.5,7.5H55C55,8.9,51.1,5,46.2,5z"/>
	</defs>
	<clipPath id="XMLID_6_">
		<use xlink:href="#XMLID_43_"  style="overflow:visible;"/>
	</clipPath>
	<g id="XMLID_47_" class="st1">
		<defs>
			<rect id="XMLID_48_" x="40" y="-0.2" width="20" height="20"/>
		</defs>
		<clipPath id="XMLID_7_">
			<use xlink:href="#XMLID_48_"  style="overflow:visible;"/>
		</clipPath>
		<rect id="XMLID_49_" x="43.2" y="2" class="st2" width="14.7" height="14.7"/>
	</g>
</g>
<g id="XMLID_59_" class="st3">
	<g id="XMLID_60_">
		<defs>
			<rect id="XMLID_61_" x="60" width="20" height="20"/>
		</defs>
		<clipPath id="XMLID_8_">
			<use xlink:href="#XMLID_61_"  style="overflow:visible;"/>
		</clipPath>
		<g id="XMLID_69_" class="st4">
			<defs>
				<circle id="XMLID_70_" cx="70" cy="10" r="10"/>
			</defs>
			<clipPath id="XMLID_9_">
				<use xlink:href="#XMLID_70_"  style="overflow:visible;"/>
			</clipPath>
			<g id="XMLID_71_" class="st5">
				<defs>
					<rect id="XMLID_72_" x="60" width="20" height="20"/>
				</defs>
				<clipPath id="XMLID_10_">
					<use xlink:href="#XMLID_72_"  style="overflow:visible;"/>
				</clipPath>
				<rect id="XMLID_73_" x="57.1" y="-2.9" class="st6" width="25.9" height="25.9"/>
			</g>
		</g>
		<g id="XMLID_62_" class="st4">
			<defs>
				<path id="XMLID_63_" d="M75.2,8.5c-0.3,0.2-4.3,2.2-4.5,2.3c-0.2,0.1-0.3,0.1-0.5,0.1c-0.2,0-0.3,0-0.5-0.1
					c-0.2-0.1-4.2-2.2-4.5-2.3C65,8.4,65,8.5,65,8.6v4.3c0,0.2,0.3,0.6,0.6,0.6h9.3c0.3,0,0.6-0.3,0.6-0.6V8.6
					C75.5,8.5,75.5,8.4,75.2,8.5z M65.3,7.3c0.3,0.2,4.2,2.3,4.4,2.3c0.1,0.1,0.3,0.1,0.5,0.1c0.2,0,0.4,0,0.5-0.1
					c0.1-0.1,4.1-2.2,4.4-2.3c0.3-0.2,0.6-0.6,0-0.6h-9.9C64.8,6.7,65,7.2,65.3,7.3z"/>
			</defs>
			<clipPath id="XMLID_11_">
				<use xlink:href="#XMLID_63_"  style="overflow:visible;"/>
			</clipPath>
			<g id="XMLID_66_" class="st7">
				<defs>
					<rect id="XMLID_67_" x="60" width="20" height="20"/>
				</defs>
				<clipPath id="XMLID_12_">
					<use xlink:href="#XMLID_67_"  style="overflow:visible;"/>
				</clipPath>
				<rect id="XMLID_68_" x="62" y="3.7" class="st8" width="16.4" height="12.6"/>
			</g>
		</g>
	</g>
</g>
<g id="XMLID_26_">
	<defs>
		<path id="XMLID_27_" d="M34.8,7.1c-0.4,0.2-0.7,0.3-1.1,0.3c0.4-0.2,0.7-0.6,0.9-1.1c-0.4,0.2-0.8,0.4-1.2,0.5
			c-0.4-0.4-0.9-0.6-1.4-0.6c-1.1,0-2,0.9-2,2c0,0.2,0,0.3,0.1,0.4c-1.6-0.1-3.1-0.9-4-2c-0.2,0.3-0.3,0.6-0.3,1
			c0,0.7,0.3,1.3,0.9,1.6c-0.3,0-0.6-0.1-0.9-0.2v0c0,0.9,0.7,1.7,1.6,1.9c-0.2,0-0.3,0.1-0.5,0.1c-0.1,0-0.2,0-0.4,0
			c0.2,0.8,1,1.3,1.8,1.4c-0.7,0.5-1.5,0.8-2.4,0.8c-0.2,0-0.3,0-0.5,0c0.9,0.6,1.9,0.9,3,0.9c3.6,0,5.5-3,5.5-5.5
			c0-0.1,0-0.2,0-0.3C34.2,7.8,34.5,7.5,34.8,7.1z"/>
	</defs>
	<use xlink:href="#XMLID_27_"  style="overflow:visible;fill-rule:evenodd;clip-rule:evenodd;fill:#3C3C57;"/>
	<clipPath id="XMLID_14_">
		<use xlink:href="#XMLID_27_"  style="overflow:visible;"/>
	</clipPath>
	<g id="XMLID_28_" class="st9">
		<defs>
			<rect id="XMLID_29_" x="-206.1" y="-445.6" width="534.4" height="644.5"/>
		</defs>
		<use xlink:href="#XMLID_29_"  style="overflow:visible;fill:#3C3C57;"/>
		<clipPath id="XMLID_16_">
			<use xlink:href="#XMLID_29_"  style="overflow:visible;"/>
		</clipPath>
		<rect id="XMLID_30_" x="22.7" y="3.6" class="st10" width="14.7" height="12.9"/>
	</g>
</g>
<g id="XMLID_32_">
	<defs>
		<path id="XMLID_33_" d="M12.4,6.9h-1.5c-0.2,0-0.4,0.2-0.4,0.5v1.1h1.8V10h-1.8v4.5H8.8V10H7.3V8.4h1.6V7.6c0-1.3,0.9-2.3,2.1-2.3
			h1.5V6.9z"/>
	</defs>
	<use xlink:href="#XMLID_33_"  style="overflow:visible;fill-rule:evenodd;clip-rule:evenodd;fill:#3C3C57;"/>
	<clipPath id="XMLID_17_">
		<use xlink:href="#XMLID_33_"  style="overflow:visible;"/>
	</clipPath>
	<g id="XMLID_34_" class="st11">
		<defs>
			<rect id="XMLID_35_" x="-266.4" y="-443.8" width="532" height="641.6"/>
		</defs>
		<use xlink:href="#XMLID_35_"  style="overflow:visible;fill:#3C3C57;"/>
		<clipPath id="XMLID_18_">
			<use xlink:href="#XMLID_35_"  style="overflow:visible;"/>
		</clipPath>
		<rect id="XMLID_36_" x="4.7" y="2.6" class="st12" width="10.3" height="14.5"/>
	</g>
</g>
</svg>
